<mxfile host="app.diagrams.net" modified="2023-03-26T19:02:40.206Z" agent="Mozilla/5.0 (Windows NT 10.0; Win64; x64) AppleWebKit/537.36 (KHTML, like Gecko) Chrome/111.0.0.0 Safari/537.36" etag="6OdEyURDhjkDpFzogqeO" version="21.1.1" type="device">
  <diagram name="Page-1" id="JCEGxdFOgvOAtDUVBZYm">
    <mxGraphModel dx="756" dy="844" grid="1" gridSize="10" guides="1" tooltips="1" connect="1" arrows="1" fold="1" page="1" pageScale="1" pageWidth="850" pageHeight="1100" math="0" shadow="0">
      <root>
        <mxCell id="0" />
        <mxCell id="1" parent="0" />
        <mxCell id="HDsGMQWWcjxy8k_yasPS-3" value="Start&lt;br&gt;&lt;b&gt;/api/address-book/count&lt;/b&gt;" style="strokeWidth=2;html=1;shape=mxgraph.flowchart.start_2;whiteSpace=wrap;fontSize=16;" parent="1" vertex="1">
          <mxGeometry x="298" y="186" width="240" height="70" as="geometry" />
        </mxCell>
        <mxCell id="HDsGMQWWcjxy8k_yasPS-5" value="&lt;b&gt;Get Address Book Count API&lt;/b&gt;" style="text;html=1;strokeColor=none;fillColor=none;align=center;verticalAlign=middle;whiteSpace=wrap;rounded=0;fontSize=16;" parent="1" vertex="1">
          <mxGeometry x="325" y="90" width="180" height="30" as="geometry" />
        </mxCell>
        <mxCell id="hzG47xRTqZ-14JZd_pw--1" value="&lt;b&gt;is &lt;br&gt;authorized?&lt;/b&gt;" style="rhombus;whiteSpace=wrap;html=1;" vertex="1" parent="1">
          <mxGeometry x="359" y="328" width="117.5" height="90" as="geometry" />
        </mxCell>
        <mxCell id="hzG47xRTqZ-14JZd_pw--2" value="" style="endArrow=classic;html=1;rounded=0;entryX=0.5;entryY=0;entryDx=0;entryDy=0;exitX=0.5;exitY=1;exitDx=0;exitDy=0;exitPerimeter=0;" edge="1" parent="1" target="hzG47xRTqZ-14JZd_pw--1" source="HDsGMQWWcjxy8k_yasPS-3">
          <mxGeometry width="50" height="50" relative="1" as="geometry">
            <mxPoint x="418" y="250" as="sourcePoint" />
            <mxPoint x="401.5" y="468" as="targetPoint" />
          </mxGeometry>
        </mxCell>
        <mxCell id="hzG47xRTqZ-14JZd_pw--3" value="" style="endArrow=classic;html=1;rounded=0;exitX=0.5;exitY=1;exitDx=0;exitDy=0;entryX=0.5;entryY=0;entryDx=0;entryDy=0;" edge="1" parent="1" source="hzG47xRTqZ-14JZd_pw--1" target="hzG47xRTqZ-14JZd_pw--13">
          <mxGeometry width="50" height="50" relative="1" as="geometry">
            <mxPoint x="351.5" y="518" as="sourcePoint" />
            <mxPoint x="418" y="484" as="targetPoint" />
          </mxGeometry>
        </mxCell>
        <mxCell id="hzG47xRTqZ-14JZd_pw--4" value="Success" style="text;html=1;strokeColor=none;fillColor=none;align=center;verticalAlign=middle;whiteSpace=wrap;rounded=0;" vertex="1" parent="1">
          <mxGeometry x="416.5" y="428" width="60" height="30" as="geometry" />
        </mxCell>
        <mxCell id="hzG47xRTqZ-14JZd_pw--5" value="Request with JWT Access Token &amp;amp; Count request" style="text;html=1;strokeColor=none;fillColor=none;align=center;verticalAlign=middle;whiteSpace=wrap;rounded=0;" vertex="1" parent="1">
          <mxGeometry x="307" y="292" width="99.75" height="30" as="geometry" />
        </mxCell>
        <mxCell id="hzG47xRTqZ-14JZd_pw--6" value="&lt;b&gt;Response code: 401&lt;/b&gt;&lt;br&gt;Unauthorized user" style="rounded=1;whiteSpace=wrap;html=1;absoluteArcSize=1;arcSize=14;strokeWidth=2;" vertex="1" parent="1">
          <mxGeometry x="621.5" y="338" width="138.5" height="70" as="geometry" />
        </mxCell>
        <mxCell id="hzG47xRTqZ-14JZd_pw--7" value="" style="endArrow=classic;html=1;rounded=0;entryX=0;entryY=0.5;entryDx=0;entryDy=0;exitX=1;exitY=0.5;exitDx=0;exitDy=0;" edge="1" parent="1" source="hzG47xRTqZ-14JZd_pw--1" target="hzG47xRTqZ-14JZd_pw--6">
          <mxGeometry width="50" height="50" relative="1" as="geometry">
            <mxPoint x="490" y="380" as="sourcePoint" />
            <mxPoint x="401.5" y="468" as="targetPoint" />
          </mxGeometry>
        </mxCell>
        <mxCell id="hzG47xRTqZ-14JZd_pw--8" value="Credentials&lt;br&gt;Not valid" style="text;html=1;strokeColor=none;fillColor=none;align=center;verticalAlign=middle;whiteSpace=wrap;rounded=0;" vertex="1" parent="1">
          <mxGeometry x="521.5" y="338" width="60" height="30" as="geometry" />
        </mxCell>
        <mxCell id="hzG47xRTqZ-14JZd_pw--9" value="&lt;b&gt;Response code: 500&lt;/b&gt;&lt;br&gt;Internal server error" style="rounded=1;whiteSpace=wrap;html=1;absoluteArcSize=1;arcSize=14;strokeWidth=2;" vertex="1" parent="1">
          <mxGeometry x="70" y="339" width="127" height="70" as="geometry" />
        </mxCell>
        <mxCell id="hzG47xRTqZ-14JZd_pw--10" value="" style="endArrow=classic;html=1;rounded=0;exitX=0;exitY=0.5;exitDx=0;exitDy=0;entryX=1;entryY=0.5;entryDx=0;entryDy=0;" edge="1" parent="1" target="hzG47xRTqZ-14JZd_pw--9">
          <mxGeometry width="50" height="50" relative="1" as="geometry">
            <mxPoint x="359.0000000000002" y="372" as="sourcePoint" />
            <mxPoint x="220" y="390" as="targetPoint" />
          </mxGeometry>
        </mxCell>
        <mxCell id="hzG47xRTqZ-14JZd_pw--11" value="Internal error" style="text;html=1;strokeColor=none;fillColor=none;align=center;verticalAlign=middle;whiteSpace=wrap;rounded=0;" vertex="1" parent="1">
          <mxGeometry x="240" y="338" width="60" height="30" as="geometry" />
        </mxCell>
        <mxCell id="hzG47xRTqZ-14JZd_pw--12" value="GET" style="text;html=1;strokeColor=none;fillColor=none;align=center;verticalAlign=middle;whiteSpace=wrap;rounded=0;" vertex="1" parent="1">
          <mxGeometry x="421" y="278" width="60" height="30" as="geometry" />
        </mxCell>
        <mxCell id="hzG47xRTqZ-14JZd_pw--13" value="&lt;b&gt;Query&lt;/b&gt;&lt;br&gt;Calculate the number of address book in the database" style="rounded=1;whiteSpace=wrap;html=1;absoluteArcSize=1;arcSize=14;strokeWidth=2;fontSize=16;" vertex="1" parent="1">
          <mxGeometry x="308" y="470" width="218" height="80" as="geometry" />
        </mxCell>
        <mxCell id="hzG47xRTqZ-14JZd_pw--15" value="&lt;b&gt;Response&lt;/b&gt; &lt;b&gt;code: 200&lt;/b&gt;&lt;br&gt;Count of address book&lt;br&gt;count: integer" style="rounded=1;whiteSpace=wrap;html=1;absoluteArcSize=1;arcSize=14;strokeWidth=2;fontSize=16;" vertex="1" parent="1">
          <mxGeometry x="331" y="630" width="171" height="70" as="geometry" />
        </mxCell>
        <mxCell id="hzG47xRTqZ-14JZd_pw--16" value="" style="endArrow=classic;html=1;rounded=0;fontSize=12;startSize=8;endSize=8;curved=1;exitX=0.5;exitY=1;exitDx=0;exitDy=0;entryX=0.5;entryY=0;entryDx=0;entryDy=0;" edge="1" parent="1" source="hzG47xRTqZ-14JZd_pw--13" target="hzG47xRTqZ-14JZd_pw--15">
          <mxGeometry width="50" height="50" relative="1" as="geometry">
            <mxPoint x="400" y="540" as="sourcePoint" />
            <mxPoint x="450" y="490" as="targetPoint" />
          </mxGeometry>
        </mxCell>
        <mxCell id="hzG47xRTqZ-14JZd_pw--17" value="&lt;b&gt;Stop&lt;/b&gt;" style="strokeWidth=2;html=1;shape=mxgraph.flowchart.terminator;whiteSpace=wrap;fontSize=16;" vertex="1" parent="1">
          <mxGeometry x="367" y="770" width="100" height="60" as="geometry" />
        </mxCell>
        <mxCell id="hzG47xRTqZ-14JZd_pw--18" value="" style="endArrow=classic;html=1;rounded=0;fontSize=12;startSize=8;endSize=8;curved=1;exitX=0.5;exitY=1;exitDx=0;exitDy=0;entryX=0.5;entryY=0;entryDx=0;entryDy=0;entryPerimeter=0;" edge="1" parent="1" source="hzG47xRTqZ-14JZd_pw--15" target="hzG47xRTqZ-14JZd_pw--17">
          <mxGeometry width="50" height="50" relative="1" as="geometry">
            <mxPoint x="400" y="730" as="sourcePoint" />
            <mxPoint x="450" y="680" as="targetPoint" />
          </mxGeometry>
        </mxCell>
        <mxCell id="hzG47xRTqZ-14JZd_pw--19" value="" style="endArrow=classic;html=1;rounded=0;fontSize=12;startSize=8;endSize=8;exitX=0.5;exitY=1;exitDx=0;exitDy=0;entryX=0;entryY=0.5;entryDx=0;entryDy=0;entryPerimeter=0;edgeStyle=orthogonalEdgeStyle;" edge="1" parent="1" source="hzG47xRTqZ-14JZd_pw--9" target="hzG47xRTqZ-14JZd_pw--17">
          <mxGeometry width="50" height="50" relative="1" as="geometry">
            <mxPoint x="280" y="690" as="sourcePoint" />
            <mxPoint x="360" y="780" as="targetPoint" />
          </mxGeometry>
        </mxCell>
        <mxCell id="hzG47xRTqZ-14JZd_pw--20" value="" style="endArrow=classic;html=1;rounded=0;fontSize=12;startSize=8;endSize=8;exitX=0.5;exitY=1;exitDx=0;exitDy=0;entryX=1;entryY=0.5;entryDx=0;entryDy=0;entryPerimeter=0;edgeStyle=orthogonalEdgeStyle;" edge="1" parent="1" source="hzG47xRTqZ-14JZd_pw--6" target="hzG47xRTqZ-14JZd_pw--17">
          <mxGeometry width="50" height="50" relative="1" as="geometry">
            <mxPoint x="320" y="750" as="sourcePoint" />
            <mxPoint x="370" y="700" as="targetPoint" />
          </mxGeometry>
        </mxCell>
      </root>
    </mxGraphModel>
  </diagram>
</mxfile>
